# xmcd
#
# Track frame offsets: 
#        150
#        17770
#        33050
#        46755
#        63255
#        76400
#        94300
#        104822
#        119187
#        133537
#        150750
#        170625
#        186875
#        201662
#        219525
#        236475
#        248375
#        263000
#        278767
#        295387
#        311715
#        327975
#
# Disc length: 4549 seconds
#
# Revision: 2
# Processed by: cddbd v1.5.1PL2 Copyright (c) Steve Scherf et al.
# Submitted via: ExactAudioCopy v0.95b4
#
DISCID=3e11c316
DTITLE=Vaya Con Dios - Best Hits 1988 - 1994
DYEAR=1900
DGENRE=Blues
TTITLE0=What's a Woman
TTITLE1=Just a Friend of Mine
TTITLE2=Don't Cry for Louie
TTITLE3=Time Files
TTITLE4=Nah Nah Nah
TTITLE5=Forever Blue
TTITLE6=Johnny
TTITLE7=Far Gone know
TTITLE8=For You
TTITLE9=Quand Elle Rit Aux Eclats
TTITLE10=Puerto Rico
TTITLE11=I Don' Want To Know
TTITLE12=Listen
TTITLE13=Night Owls
TTITLE14=Lay Your Hands
TTITLE15=Something's Got a Hold on Me
TTITLE16=Farewell Song
TTITLE17=Sunny Days
TTITLE18=Heding for a Fall
TTITLE19=Sally
TTITLE20=Philadelphia
TTITLE21=So Long Ago
EXTD=
EXTT0=
EXTT1=
EXTT2=
EXTT3=
EXTT4=
EXTT5=
EXTT6=
EXTT7=
EXTT8=
EXTT9=
EXTT10=
EXTT11=
EXTT12=
EXTT13=
EXTT14=
EXTT15=
EXTT16=
EXTT17=
EXTT18=
EXTT19=
EXTT20=
EXTT21=
PLAYORDER=
